<?xml version="1.0" encoding="UTF-8"?>
<svg version="1.1" xmlns="http://www.w3.org/2000/svg" width="32" height="32">
<path d="M0 0 C1.32 1.32 2.64 2.64 4 4 C3.34 4.66 2.68 5.32 2 6 C1.72258755 8.23035297 1.72258755 8.23035297 1.8046875 10.7890625 C1.81113281 11.73007813 1.81757813 12.67109375 1.82421875 13.640625 C1.84097656 14.62546875 1.85773437 15.6103125 1.875 16.625 C1.88402344 17.61757813 1.89304687 18.61015625 1.90234375 19.6328125 C1.92595884 22.08878134 1.95889201 24.54427168 2 27 C-4.0546875 27.1953125 -4.0546875 27.1953125 -6 27 C-8 25 -8 25 -9 23 C-9.556875 23.66 -10.11375 24.32 -10.6875 25 C-13 27 -13 27 -15.5625 27.5 C-18 27 -18 27 -19.640625 25.578125 C-21.74926523 21.57897974 -21.31548151 17.69325544 -21.1875 13.25 C-21.17396484 12.36183594 -21.16042969 11.47367188 -21.14648438 10.55859375 C-21.11121309 8.37177422 -21.06192752 6.18620034 -21 4 C-19.68 4 -18.36 4 -17 4 C-17 5.65 -17 7.3 -17 9 C-16.21625 8.95875 -15.4325 8.9175 -14.625 8.875 C-12 9 -12 9 -10 11 C-9.34 8.36 -8.68 5.72 -8 3 C-7.01 3.33 -6.02 3.66 -5 4 C-4.505 12.415 -4.505 12.415 -4 21 C-3.34 21.33 -2.68 21.66 -2 22 C-2.01160156 21.18015625 -2.02320312 20.3603125 -2.03515625 19.515625 C-2.04417969 18.43796875 -2.05320312 17.3603125 -2.0625 16.25 C-2.07410156 15.18265625 -2.08570312 14.1153125 -2.09765625 13.015625 C-2 10 -2 10 -1.37109375 7.796875 C-1.24863281 7.20390625 -1.12617188 6.6109375 -1 6 C-1.66 5.01 -2.32 4.02 -3 3 C-2.34 3 -1.68 3 -1 3 C-0.67 2.01 -0.34 1.02 0 0 Z M-16 15 C-16.33 16.65 -16.66 18.3 -17 20 C-15.68 20 -14.36 20 -13 20 C-13.33 18.35 -13.66 16.7 -14 15 C-14.66 15 -15.32 15 -16 15 Z " fill="#A81FE3" transform="translate(21,0)"/>
<path d="M0 0 C0.99 0.33 1.98 0.66 3 1 C3 2.65 3 4.3 3 6 C4.1446875 5.87625 4.1446875 5.87625 5.3125 5.75 C8 6 8 6 9.75 7.4375 C11.56902411 11.16649943 11.74572316 14.89649792 12 19 C11.34 19 10.68 19 10 19 C9.67 20.32 9.34 21.64 9 23 C6.69 23.33 4.38 23.66 2 24 C0.02330323 22.14294541 -0.92338893 20.60877429 -1.26367188 17.90478516 C-1.3313257 15.36827928 -1.31026212 12.84915847 -1.25 10.3125 C-1.24484375 9.43271484 -1.2396875 8.55292969 -1.234375 7.64648438 C-1.1542862 1.1542862 -1.1542862 1.1542862 0 0 Z M4 12 C3.67 13.65 3.34 15.3 3 17 C4.32 17 5.64 17 7 17 C6.67 15.35 6.34 13.7 6 12 C5.34 12 4.68 12 4 12 Z " fill="#CC0FDB" transform="translate(1,3)"/>
<path d="M0 0 C0.99 0.33 1.98 0.66 3 1 C3 2.65 3 4.3 3 6 C2.34 6 1.68 6 1 6 C1.15597656 6.55429688 1.31195312 7.10859375 1.47265625 7.6796875 C1.66730469 8.40414063 1.86195312 9.12859375 2.0625 9.875 C2.25972656 10.59429687 2.45695312 11.31359375 2.66015625 12.0546875 C3 14 3 14 2 16 C1.72830546 18.23393291 1.55522167 20.46760508 1.37890625 22.7109375 C0.97750552 25.13589449 0.20137315 26.8696298 -1 29 C-2.65 28.67 -4.3 28.34 -6 28 C-6 26.68 -6 25.36 -6 24 C-5.34 23.67 -4.68 23.34 -4 23 C-3.59270772 20.67843403 -3.25561323 18.3431213 -3 16 C-3.66 16 -4.32 16 -5 16 C-5.042721 14.33388095 -5.04063832 12.66617115 -5 11 C-4.67 10.67 -4.34 10.34 -4 10 C-3.47071924 7.68717649 -3.03666285 5.36278087 -2.59765625 3.03125 C-2.40042969 2.3609375 -2.20320313 1.690625 -2 1 C-1.34 0.67 -0.68 0.34 0 0 Z " fill="#8134F0" transform="translate(29,3)"/>
<path d="M0 0 C1.32 1.32 2.64 2.64 4 4 C3.34 4.66 2.68 5.32 2 6 C1.72258755 8.23035297 1.72258755 8.23035297 1.8046875 10.7890625 C1.81113281 11.73007813 1.81757813 12.67109375 1.82421875 13.640625 C1.84097656 14.62546875 1.85773437 15.6103125 1.875 16.625 C1.88853516 18.11386719 1.88853516 18.11386719 1.90234375 19.6328125 C1.92595884 22.08878134 1.95889201 24.54427168 2 27 C1.01 27 0.02 27 -1 27 C-2.05888511 20.91141062 -3.16715801 13.89773138 -1.3671875 7.88671875 C-0.70750376 5.67669133 -0.70750376 5.67669133 -3 3 C-2.34 3 -1.68 3 -1 3 C-0.67 2.01 -0.34 1.02 0 0 Z " fill="#962AE9" transform="translate(21,0)"/>
<path d="M0 0 C1.32 1.32 2.64 2.64 4 4 C2.68 5.32 1.36 6.64 0 8 C-0.99 6.35 -1.98 4.7 -3 3 C-2.34 3 -1.68 3 -1 3 C-0.67 2.01 -0.34 1.02 0 0 Z " fill="#8232F2" transform="translate(21,0)"/>
</svg>
