 <svg  version="1.0" xmlns="http://www.w3.org/2000/svg"  width="300.000000pt" height="254.000000pt" viewBox="0 0 300.000000 254.000000"  preserveAspectRatio="xMidYMid meet">  <g transform="translate(0.000000,254.000000) scale(0.100000,-0.100000)" fill="#c80e2a" stroke="none"> <path d="M1169 2383 c-57 -35 -59 -46 -59 -347 l0 -276 -39 -24 c-59 -38 -135 -59 -187 -53 -25 2 -42 1 -37 -3 8 -8 55 -18 196 -42 l67 -12 0 -255 c0 -369 -18 -351 355 -351 382 0 358 -22 365 339 3 146 5 267 4 268 0 1 -20 -5 -45 -15 l-44 -17 3 -132 3 -133 -281 0 -280 0 0 138 0 137 207 0 c164 0 223 4 278 18 165 41 280 102 369 195 28 28 53 57 57 64 5 10 -52 42 -209 117 -119 57 -221 105 -228 108 -7 2 -15 -5 -19 -17 -24 -76 -228 -320 -267 -320 -22 0 -77 45 -110 90 l-31 41 -18 -30 c-10 -17 -21 -31 -24 -31 -3 0 -5 101 -5 225 l0 225 280 0 280 0 0 -88 0 -88 38 -19 c20 -11 39 -21 42 -22 3 -2 4 52 2 119 -4 135 -17 173 -67 196 -18 8 -111 12 -298 12 -234 0 -276 -3 -298 -17z m584 -23 c46 -25 57 -53 57 -153 0 -79 -2 -88 -17 -85 -15 3 -18 16 -21 83 -2 43 -8 85 -14 92 -15 18 -558 19 -576 1 -15 -15 -17 -435 -3 -457 5 -8 17 -16 25 -17 9 -1 14 1 11 6 -3 4 1 13 8 19 11 8 23 0 55 -34 23 -25 47 -45 54 -45 25 0 -22 -34 -84 -60 -59 -25 -63 -29 -70 -66 -4 -21 -7 -100 -7 -175 -1 -115 2 -139 16 -150 22 -19 545 -18 568 1 11 9 15 42 17 138 3 111 5 127 21 130 16 3 17 -13 17 -228 0 -199 -2 -236 -17 -260 -29 -50 -38 -51 -331 -48 l-272 3 -27 28 -28 27 -5 270 c-3 159 -9 273 -15 279 -5 5 -32 11 -60 13 l-50 3 37 18 c20 11 49 29 63 42 l25 24 0 261 c0 206 3 268 15 296 24 59 47 63 328 62 213 -1 253 -4 280 -18z m63 -349 c77 -37 165 -81 197 -96 31 -15 57 -30 57 -34 0 -4 -26 -33 -57 -65 -51 -51 -132 -100 -218 -132 -42 -15 -141 -41 -190 -49 -57 -10 -335 -14 -340 -5 -2 4 -20 6 -40 4 -29 -2 -35 1 -35 17 0 12 11 23 28 30 15 6 57 26 94 44 45 23 68 30 71 22 7 -22 157 135 225 236 36 53 66 97 67 97 1 0 65 -31 141 -69z m-706 -361 c0 -5 -4 -10 -10 -10 -5 0 -10 5 -10 10 0 6 5 10 10 10 6 0 10 -4 10 -10z"/> <path d="M1400 1261 c-16 -31 -12 -117 6 -135 20 -20 117 -22 132 -3 19 22 21 119 4 140 -23 26 -127 24 -142 -2z m130 -64 c0 -30 -2 -56 -4 -58 -2 -2 -29 -2 -60 -1 l-56 4 0 54 0 54 60 0 60 0 0 -53z"/> <path d="M1262 1238 c-16 -16 -16 -70 0 -86 7 -7 26 -12 43 -12 17 0 36 5 43 12 7 7 12 26 12 43 0 17 -5 36 -12 43 -16 16 -70 16 -86 0z m78 -43 c0 -33 -2 -35 -35 -35 -32 0 -35 3 -35 28 0 36 6 42 42 42 25 0 28 -3 28 -35z"/> <path d="M1602 1238 c-7 -7 -12 -26 -12 -43 0 -17 5 -36 12 -43 15 -15 53 -16 79 -2 23 13 26 62 3 84 -18 19 -65 21 -82 4z m72 -43 c0 -26 -4 -30 -32 -33 -31 -3 -32 -2 -32 33 0 35 1 36 32 33 28 -3 32 -7 32 -33z"/> <path d="M180 691 l-45 -19 -3 -208 -2 -209 60 0 60 0 0 171 c0 171 0 172 23 178 13 3 40 1 61 -5 56 -16 67 -51 65 -211 l-1 -130 58 0 59 0 1 168 c2 167 2 168 25 177 15 5 38 4 61 -3 59 -17 68 -45 68 -207 l0 -138 60 0 60 0 0 156 c0 144 -2 159 -23 200 -32 61 -96 93 -186 93 -36 1 -80 -5 -97 -12 -27 -12 -39 -11 -78 2 -62 21 -169 20 -226 -3z m212 -17 c48 -14 66 -15 97 -5 83 24 188 8 232 -37 43 -44 49 -71 49 -218 l0 -135 -37 3 -38 3 -5 135 c-3 82 -10 144 -18 157 -27 48 -115 69 -160 37 -21 -15 -22 -21 -22 -175 l0 -159 -34 0 -34 0 -1 131 c-1 71 -6 140 -11 153 -14 38 -58 66 -103 66 -73 0 -77 -11 -77 -192 l0 -158 -34 0 c-22 0 -36 6 -40 16 -8 20 -8 312 0 342 5 16 20 26 53 36 62 19 113 19 183 0z"/> <path d="M701 484 c0 -11 3 -14 6 -6 3 7 2 16 -1 19 -3 4 -6 -2 -5 -13z"/> <path d="M1160 701 l-35 -6 -3 -307 -2 -308 60 0 60 0 0 96 c0 95 0 95 23 87 12 -4 49 -8 82 -8 136 1 228 116 210 260 -11 93 -68 161 -154 185 -39 11 -183 11 -241 1z m274 -41 c67 -34 93 -80 94 -173 2 -85 -15 -126 -70 -170 -43 -34 -105 -49 -165 -37 -62 11 -72 -1 -75 -90 l-3 -75 -33 -3 -32 -3 2 283 3 283 40 7 c80 13 188 3 239 -22z"/> <path d="M1239 620 c-15 -13 -19 -34 -20 -129 -2 -113 -2 -114 25 -138 40 -34 113 -32 156 4 17 14 36 38 41 52 14 36 13 115 -2 142 -39 75 -149 113 -200 69z m132 -27 c54 -32 73 -109 45 -177 -25 -60 -75 -79 -145 -55 l-31 11 0 119 0 119 51 0 c30 0 63 -7 80 -17z"/> <path d="M1709 687 c-116 -61 -148 -259 -58 -361 57 -65 189 -90 302 -57 l47 14 0 44 c0 39 -2 44 -17 38 -26 -11 -167 -19 -198 -11 -22 6 -65 57 -65 79 0 4 68 7 151 7 l152 0 -6 67 c-12 128 -89 203 -207 203 -40 0 -70 -7 -101 -23z m160 -7 c38 -11 96 -67 111 -106 14 -37 13 -104 -2 -105 -7 0 -66 -1 -131 -1 -132 -1 -154 -10 -142 -57 17 -67 86 -97 197 -87 55 6 68 4 68 -7 0 -23 -54 -39 -125 -39 -49 0 -77 6 -118 26 -73 35 -96 78 -99 180 -2 70 1 80 28 119 50 71 131 101 213 77z"/> <path d="M1764 624 c-37 -18 -57 -51 -52 -85 3 -23 6 -24 99 -27 78 -2 98 0 109 13 29 35 -46 116 -107 115 -10 0 -32 -7 -49 -16z m117 -43 c16 -16 29 -34 29 -40 0 -7 -34 -11 -94 -11 -90 0 -94 1 -89 20 16 61 106 79 154 31z"/> <path d="M2141 693 c-50 -26 -71 -61 -73 -117 -1 -67 23 -96 98 -119 95 -30 124 -45 124 -66 0 -24 -17 -37 -57 -44 -31 -6 -107 4 -145 18 -16 6 -18 1 -18 -37 0 -40 3 -45 33 -56 17 -7 59 -15 92 -18 121 -12 205 48 205 143 0 66 -41 104 -138 128 -74 18 -98 37 -86 69 3 8 15 18 26 22 23 7 120 -3 155 -17 22 -8 23 -7 23 40 0 59 -4 61 -120 68 -69 3 -91 1 -119 -14z m174 -12 c21 -4 31 -13 33 -29 3 -20 0 -22 -25 -17 -66 12 -133 8 -153 -10 -45 -41 -15 -93 70 -119 95 -30 111 -38 124 -65 7 -14 12 -37 11 -51 -2 -14 -4 -30 -4 -37 -1 -17 -41 -53 -71 -65 -33 -13 -138 -12 -172 1 -16 6 -28 17 -28 25 0 12 17 14 84 13 70 -2 87 1 105 17 21 19 26 41 15 71 -7 17 -74 55 -98 55 -37 0 -95 32 -104 58 -43 113 59 186 213 153z"/> <path d="M2562 684 c-92 -46 -140 -137 -128 -242 10 -87 52 -145 128 -176 65 -28 152 -15 187 28 22 26 5 30 -27 6 -54 -40 -168 -25 -214 27 -48 55 -64 163 -33 236 33 81 144 136 244 124 60 -8 103 -17 113 -23 4 -3 8 -89 8 -191 l0 -186 -40 6 c-35 4 -40 2 -40 -14 0 -16 8 -19 55 -19 l55 0 0 210 0 209 -37 12 c-21 6 -78 13 -128 16 -83 4 -94 2 -143 -23z"/> <path d="M2630 623 c-54 -20 -90 -83 -90 -159 0 -52 3 -59 40 -96 39 -39 42 -40 92 -36 40 4 57 11 75 32 21 25 23 37 23 130 0 87 -3 105 -18 119 -18 17 -89 22 -122 10z m98 -19 c21 -6 22 -11 22 -110 l0 -104 -32 -20 c-46 -28 -82 -25 -119 8 -25 23 -33 38 -36 78 -10 104 68 174 165 148z"/> <path d="M840 493 l0 -58 116 2 116 2 2 56 1 55 -117 0 -118 0 0 -57z m188 31 c18 -5 22 -13 20 -33 -3 -26 -3 -26 -93 -26 -89 0 -90 0 -90 25 0 14 1 28 3 33 4 8 127 9 160 1z"/> </g> </svg> 